<svg xmlns="http://www.w3.org/2000/svg" width="100%" height="105" viewBox="0 0 301 105" fill="none" class="absolute top-1/2 left-1/2 transform -translate-x-1/2 -translate-y-1/2 md:w-auto w-3/4">
  <path d="M62.1605 102.368V6.31579H87.0783V102.368H62.1605ZM0 102.368V6.31579H24.9178V102.368H0ZM20.6309 64.6053V43.2895H66.4475V64.6053H20.6309Z" fill="#06231F"/>
  <path d="M141.717 105C132.607 105 124.926 103.596 118.675 100.789C112.512 97.9825 107.823 94.1667 104.608 89.3421C101.482 84.4298 99.9192 78.8158 99.9192 72.5H124.033C124.033 74.7807 124.658 76.886 125.909 78.8158C127.248 80.6579 129.213 82.1053 131.803 83.1579C134.393 84.2105 137.698 84.7368 141.717 84.7368C145.2 84.7368 148.147 84.2982 150.559 83.4211C153.059 82.5439 154.935 81.3158 156.185 79.7368C157.525 78.1579 158.195 76.2719 158.195 74.0789C158.195 71.2719 156.989 69.1228 154.578 67.6316C152.166 66.0526 148.103 65.0439 142.387 64.6053L136.09 64.0789C125.998 63.2018 117.96 60.0877 111.976 54.7368C105.992 49.386 103 42.2807 103 33.421C103 27.1053 104.474 21.7105 107.421 17.2368C110.458 12.7632 114.7 9.34211 120.148 6.97369C125.596 4.60527 132.027 3.42106 139.439 3.42106C147.477 3.42106 154.265 4.73684 159.802 7.36842C165.429 10 169.716 13.7281 172.663 18.5526C175.61 23.2895 177.084 28.8158 177.084 35.1316H152.97C152.97 33.0263 152.434 31.0965 151.362 29.3421C150.291 27.5877 148.728 26.2281 146.674 25.2632C144.709 24.2105 142.297 23.6842 139.439 23.6842C136.76 23.6842 134.483 24.1228 132.607 25C130.821 25.7895 129.437 26.9298 128.454 28.4211C127.561 29.9123 127.114 31.5789 127.114 33.421C127.114 35.8772 127.963 37.9825 129.66 39.7368C131.357 41.4912 134.304 42.5439 138.502 42.8947L144.798 43.4211C152.122 44.0351 158.597 45.614 164.223 48.1579C169.85 50.614 174.271 53.9912 177.486 58.2895C180.701 62.5877 182.309 67.8509 182.309 74.0789C182.309 80.307 180.656 85.7456 177.352 90.3947C174.137 95.0439 169.493 98.6403 163.419 101.184C157.436 103.728 150.201 105 141.717 105Z" fill="#06231F"/>
  <path d="M197.605 102.368V29.7368H221.987V102.368H197.605ZM188.227 47.1053V29.7368H221.987V47.1053H188.227ZM207.652 23.9474C203.187 23.9474 199.882 22.8509 197.739 20.6579C195.685 18.3772 194.658 15.4825 194.658 11.9737C194.658 8.46491 195.685 5.61404 197.739 3.42106C199.882 1.14035 203.142 0 207.518 0C211.984 0 215.244 1.14035 217.298 3.42106C219.352 5.61404 220.379 8.46491 220.379 11.9737C220.379 15.4825 219.352 18.3772 217.298 20.6579C215.244 22.8509 212.029 23.9474 207.652 23.9474Z" fill="#06231F"/>
  <path d="M240.983 102.368V6.31579H265.901V102.368H240.983ZM263.221 65.1316V45.1316H299.526V65.1316H263.221ZM263.221 26.3158V6.31579H301V26.3158H263.221Z" fill="#06231F"/>
</svg>
